<?xml version="1.0" encoding="UTF-8"?>
<svg xmlns="http://www.w3.org/2000/svg" xmlns:xlink="http://www.w3.org/1999/xlink" width="98pt" height="78pt" viewBox="0 0 98 78" version="1.1">
<g id="surface1">
<path style=" stroke:none;fill-rule:nonzero;fill:rgb(0%,0%,0%);fill-opacity:1;" d="M 14.28125 30.359375 L 14.464844 36.714844 L 12.433594 36.902344 C 10.957031 37.023438 10.09375 36.777344 9.542969 35.976562 C 8.496094 34.496094 7.695312 35.296875 8.617188 36.964844 C 9.109375 37.949219 9.847656 38.257812 11.695312 38.257812 C 15.511719 38.257812 16.003906 37.890625 16.003906 34.558594 C 16.003906 29.867188 15.265625 24.066406 14.652344 24.066406 C 14.34375 24.066406 14.160156 26.78125 14.28125 30.359375 Z M 14.28125 30.359375 "/>
<path style=" stroke:none;fill-rule:nonzero;fill:rgb(0%,0%,0%);fill-opacity:1;" d="M 32.257812 30.917969 C 32.441406 33.324219 32.808594 35.605469 32.996094 35.914062 C 33.179688 36.222656 35.703125 36.285156 38.78125 36.039062 L 44.199219 35.605469 L 44.691406 38.566406 L 45.121094 41.46875 L 48.507812 41.097656 C 50.355469 40.851562 52.140625 40.542969 52.445312 40.359375 C 52.816406 40.109375 52.878906 37.949219 52.632812 34.925781 C 52.015625 27.398438 52.199219 27.707031 47.832031 27.890625 L 44.015625 28.078125 L 44.199219 31.226562 L 44.445312 34.371094 L 39.273438 34.679688 C 36.441406 34.867188 34.164062 34.988281 34.101562 34.925781 C 34.042969 34.925781 33.855469 33.691406 33.609375 32.210938 C 33.304688 30.113281 33.425781 29.621094 34.164062 29.621094 C 34.65625 29.621094 35.089844 29.3125 35.089844 29.003906 C 35.089844 28.632812 34.65625 28.386719 34.164062 28.386719 C 33.671875 28.386719 33.242188 27.953125 33.242188 27.460938 C 33.242188 26.964844 32.933594 26.535156 32.5625 26.535156 C 32.011719 26.535156 31.949219 27.832031 32.257812 30.917969 Z M 50.660156 30.976562 C 51.03125 33.691406 50.785156 33.941406 47.953125 33.941406 C 45.613281 33.941406 45.554688 33.878906 45.554688 31.839844 C 45.554688 29.683594 46.105469 29.25 49 29.066406 C 50.046875 29.003906 50.414062 29.433594 50.660156 30.976562 Z M 51.09375 37.332031 C 51.09375 39.433594 51.03125 39.492188 48.628906 39.492188 C 46.230469 39.492188 46.167969 39.433594 46.167969 37.332031 C 46.167969 35.234375 46.230469 35.175781 48.628906 35.175781 C 51.03125 35.175781 51.09375 35.234375 51.09375 37.332031 Z M 51.09375 37.332031 "/>
<path style=" stroke:none;fill-rule:nonzero;fill:rgb(0%,0%,0%);fill-opacity:1;" d="M 60.820312 26.90625 C 60.632812 27.089844 60.574219 28.261719 60.695312 29.496094 C 60.820312 30.730469 61.066406 33.632812 61.3125 35.914062 C 61.679688 40.050781 62.789062 41.839844 62.789062 38.257812 C 62.789062 36.59375 62.972656 36.410156 64.882812 36.410156 C 66.851562 36.410156 66.976562 36.53125 67.34375 39.246094 C 67.527344 40.851562 67.714844 43.074219 67.714844 44.183594 C 67.714844 45.480469 68.019531 46.28125 68.515625 46.28125 C 69.066406 46.28125 69.253906 45.171875 69.066406 41.777344 C 68.699219 35.542969 68.144531 34.371094 65.867188 34.679688 C 63.773438 34.988281 63.652344 34.804688 65.003906 33.261719 C 65.558594 32.644531 65.804688 31.839844 65.558594 31.472656 C 65.25 30.976562 64.820312 31.164062 64.203125 32.027344 C 62.789062 34.125 62.171875 33.507812 62.171875 29.929688 C 62.171875 26.84375 61.742188 25.917969 60.820312 26.90625 Z M 60.820312 26.90625 "/>
<path style=" stroke:none;fill-rule:nonzero;fill:rgb(0%,0%,0%);fill-opacity:1;" d="M 22.53125 28.878906 C 22.285156 29.3125 22.222656 30.976562 22.46875 32.519531 C 22.898438 35.542969 22.40625 36.410156 19.945312 36.410156 C 18.898438 36.410156 18.527344 35.914062 18.222656 33.941406 C 18.035156 32.582031 17.542969 31.472656 17.175781 31.472656 C 16.683594 31.472656 16.621094 32.335938 16.867188 34.0625 C 17.421875 37.457031 17.542969 37.640625 20.253906 37.640625 C 23.699219 37.640625 24.316406 36.59375 23.636719 31.902344 C 23.269531 29.433594 22.898438 28.386719 22.53125 28.878906 Z M 22.53125 28.878906 "/>
<path style=" stroke:none;fill-rule:nonzero;fill:rgb(0%,0%,0%);fill-opacity:1;" d="M 27.394531 30.792969 C 25.300781 31.101562 24.929688 31.410156 24.929688 32.707031 C 24.929688 34.125 25.238281 34.25 28.007812 34.558594 C 30.53125 34.804688 30.839844 34.925781 29.546875 35.296875 C 28.6875 35.542969 27.394531 35.792969 26.65625 35.792969 C 25.855469 35.792969 25.238281 36.039062 25.238281 36.410156 C 25.238281 37.332031 29.792969 37.148438 31.148438 36.160156 C 32.070312 35.421875 32.195312 35.050781 31.640625 34.125 C 31.085938 33.261719 30.285156 33.074219 28.378906 33.199219 C 26.902344 33.324219 25.855469 33.136719 25.855469 32.765625 C 25.855469 32.398438 26.960938 32.089844 28.316406 32.089844 C 30.101562 32.089844 30.777344 31.839844 30.777344 31.164062 C 30.777344 30.667969 30.59375 30.300781 30.347656 30.300781 C 30.039062 30.359375 28.746094 30.609375 27.394531 30.792969 Z M 27.394531 30.792969 "/>
<path style=" stroke:none;fill-rule:nonzero;fill:rgb(0%,0%,0%);fill-opacity:1;" d="M 69.683594 33.507812 C 68.820312 34.496094 69.375 38.691406 70.421875 39.0625 C 70.792969 39.183594 72.882812 39.125 75.101562 38.9375 C 80.394531 38.445312 80.023438 37.273438 74.609375 37.519531 C 71.839844 37.703125 70.667969 37.519531 71.097656 37.148438 C 71.46875 36.777344 72.699219 36.410156 73.871094 36.285156 C 75.714844 36.101562 76.023438 35.851562 76.023438 34.558594 C 76.023438 33.136719 75.777344 33.015625 73.191406 32.828125 C 71.34375 32.707031 70.113281 32.953125 69.683594 33.507812 Z M 74.792969 34.558594 C 74.609375 34.867188 73.5 35.175781 72.453125 35.113281 C 70.792969 35.113281 70.667969 34.988281 71.714844 34.558594 C 73.4375 33.816406 75.222656 33.816406 74.792969 34.558594 Z M 74.792969 34.558594 "/>
<path style=" stroke:none;fill-rule:nonzero;fill:rgb(0%,0%,0%);fill-opacity:1;" d="M 54.171875 34.925781 C 54.171875 35.792969 54.601562 35.851562 56.632812 35.542969 C 58.171875 35.296875 59.09375 35.421875 59.09375 35.792969 C 59.09375 36.101562 58.171875 36.410156 57.125 36.410156 C 54.417969 36.410156 53.433594 37.148438 53.679688 38.9375 C 53.863281 40.296875 54.109375 40.417969 56.941406 40.234375 C 58.601562 40.109375 60.140625 39.742188 60.386719 39.433594 C 60.574219 39.0625 60.574219 37.765625 60.386719 36.53125 C 60.019531 34.308594 59.957031 34.25 57.0625 34.0625 C 54.664062 33.878906 54.171875 34.0625 54.171875 34.925781 Z M 59.09375 38.257812 C 59.09375 38.566406 58.050781 38.875 56.816406 38.816406 C 54.726562 38.753906 54.664062 38.691406 56.019531 38.257812 C 58.234375 37.582031 59.09375 37.582031 59.09375 38.257812 Z M 59.09375 38.257812 "/>
</g>
</svg>
